<?xml version="1.0" standalone="no"?><!DOCTYPE svg PUBLIC "-//W3C//DTD SVG 1.1//EN" "http://www.w3.org/Graphics/SVG/1.1/DTD/svg11.dtd"><svg t="1730363142373" class="icon" viewBox="0 0 1024 1024" version="1.1" xmlns="http://www.w3.org/2000/svg" p-id="5326" xmlns:xlink="http://www.w3.org/1999/xlink" width="200" height="200"><path d="M834.77 351.69c-58.72-58.72-136.84-91.07-219.86-91.07H262.82l52.66-45.16c18.61-15.94 20.7-43.93 4.76-62.5-15.94-18.61-43.93-20.74-62.47-4.8L114.15 271.3c-0.53 0.46-1.01 0.96-1.52 1.44-0.41 0.39-0.83 0.76-1.22 1.16-0.64 0.65-1.23 1.33-1.83 2.01-0.37 0.42-0.74 0.84-1.09 1.28-0.55 0.68-1.06 1.39-1.57 2.1-0.35 0.49-0.7 0.99-1.03 1.5-0.45 0.69-0.87 1.39-1.28 2.1-0.34 0.58-0.66 1.17-0.97 1.77-0.35 0.68-0.68 1.37-1 2.08-0.3 0.66-0.57 1.32-0.84 1.99-0.28 0.7-0.54 1.41-0.78 2.12-0.22 0.67-0.43 1.35-0.62 2.04-0.22 0.78-0.42 1.55-0.6 2.34-0.13 0.6-0.25 1.21-0.36 1.83-0.17 0.93-0.32 1.86-0.43 2.8-0.05 0.45-0.09 0.9-0.13 1.36-0.06 0.68-0.16 1.35-0.19 2.04-0.12 3.49 0.18 6.94 0.85 10.31 0.04 0.19 0.07 0.38 0.11 0.57 0.25 1.17 0.55 2.33 0.89 3.48 0.1 0.32 0.19 0.64 0.3 0.96 0.34 1.04 0.71 2.06 1.12 3.07a41.462 41.462 0 0 0 1.83 3.95c0.18 0.35 0.37 0.69 0.57 1.03 0.53 0.94 1.08 1.86 1.67 2.76 0.19 0.29 0.39 0.57 0.59 0.86 0.64 0.92 1.3 1.82 2.01 2.69 0.18 0.22 0.37 0.43 0.55 0.64 0.69 0.82 1.42 1.62 2.17 2.39 0.15 0.15 0.29 0.31 0.44 0.46l143.48 143.44c8.66 8.66 19.98 12.98 31.31 12.98 11.33 0 22.72-4.33 31.38-12.98 17.24-17.31 17.24-45.37-0.07-62.68L250 349.28h364.86c59.37 0 115.2 23.12 157.18 65.1 42.05 42.02 65.21 97.85 65.21 157.25 0 122.63-99.83 222.42-222.46 222.46H266.07c-24.45 0-44.29 19.84-44.29 44.33s19.84 44.33 44.29 44.33h348.84c171.46-0.04 310.97-139.61 310.97-311.11 0-83.08-32.32-161.2-91.11-219.95z" fill="#174E8E" p-id="5327"></path></svg>