<?xml version="1.0" standalone="no"?><!DOCTYPE svg PUBLIC "-//W3C//DTD SVG 1.1//EN" "http://www.w3.org/Graphics/SVG/1.1/DTD/svg11.dtd"><svg class="icon" width="32px" height="32.00px" viewBox="0 0 1024 1024" version="1.1" xmlns="http://www.w3.org/2000/svg"><path fill="#ffffff" d="M835.4 718.1c-17.7-41.9-43.1-79.6-75.4-111.9-32.3-32.3-70-57.7-111.9-75.4-2.4-1-4.9-2-7.3-3 11.6-7.9 22.6-17 32.8-27.2 42.9-42.9 66.5-99.9 66.5-160.5s-23.6-117.6-66.5-160.5c-42.9-42.9-99.9-66.5-160.5-66.5s-117.6 23.6-160.5 66.5-66.5 99.9-66.5 160.5 23.6 117.6 66.5 160.5c9.8 9.8 20.2 18.5 31.3 26.2-3.3 1.3-6.6 2.6-9.8 4-41.9 17.7-79.6 43.1-111.9 75.4-32.3 32.3-57.7 70-75.4 111.9-18.4 43.4-27.7 89.5-27.7 137 0 17.7 14.3 32 32 32s32-14.3 32-32c0-76.9 30-149.3 84.4-203.6 54.4-54.4 126.7-84.4 203.6-84.4s149.3 30 203.6 84.4c54.4 54.4 84.4 126.7 84.4 203.6 0 17.7 14.3 32 32 32s32-14.3 32-32c0-47.5-9.3-93.6-27.7-137z m-485.3-378c0-89.9 73.1-163 163-163s163 73.1 163 163-73.1 163-163 163-163-73.2-163-163z"  /><path fill="#ffffff" d="M957.8 590.2c-18.1-24.1-39.8-44.5-64.1-60.6 4.1-2.6 8.2-5.3 12.1-8.3 36.4-27.3 59.9-67.1 66.4-112.1 13.3-92.9-51.6-179.3-144.5-192.6-17.5-2.5-33.7 9.7-36.2 27.2s9.7 33.7 27.2 36.2c58 8.3 98.5 62.2 90.2 120.2-4 28.1-18.7 53-41.4 70-19.9 14.9-43.7 22.3-68.2 21.2-3.9-0.7-7.9-1.4-11.9-2-17.5-2.5-33.7 9.7-36.2 27.2-1.7 12.1 3.6 23.6 12.8 30.4 4.3 3.5 9.7 6 15.6 6.8 3.8 0.5 7.5 0.9 11.2 1.2 46.4 9.7 87.2 35.5 115.8 73.8 31.2 41.6 44.4 93 37 144.5-2.5 17.5 9.7 33.7 27.2 36.2 1.5 0.2 3.1 0.3 4.6 0.3 15.7 0 29.4-11.5 31.6-27.5 9.8-68.6-7.7-136.8-49.2-192.1zM273.9 517.6c-1.6-11.7-9.4-21-19.7-25.2-5.4-2.5-11.6-3.6-18-2.7-3.4 0.5-6.8 1-10.2 1.7-24.1 0.7-47.5-6.7-67-21.3-22.7-17.1-37.3-42-41.3-70.1-8.2-58 32.4-111.9 90.4-120 17.5-2.5 29.7-18.6 27.2-36.1s-18.6-29.7-36.1-27.2c-93 13.1-158 99.4-144.9 192.3 6.3 45 29.8 84.9 66.2 112.3 3.6 2.7 7.2 5.2 10.9 7.6-25.1 16.3-47.4 37-65.9 61.6-41.6 55-59.2 123.1-49.6 191.6 2.2 16 16 27.5 31.6 27.5 1.5 0 3-0.1 4.5-0.3 17.5-2.5 29.7-18.6 27.2-36.1-7.3-51.5 6-102.8 37.3-144.4 29-38.4 70.2-64.3 117-73.7 4.3-0.3 8.7-0.7 13.1-1.3 17.5-2.6 29.7-18.7 27.3-36.2z"  /></svg>