<?xml version="1.0" standalone="no"?><!DOCTYPE svg PUBLIC "-//W3C//DTD SVG 1.1//EN" "http://www.w3.org/Graphics/SVG/1.1/DTD/svg11.dtd"><svg class="icon" width="32px" height="32.00px" viewBox="0 0 1024 1024" version="1.1" xmlns="http://www.w3.org/2000/svg"><path fill="#ffffff" d="M925.866667 520.533333c-2.133333-6.4-4.266667-10.666667-6.4-17.066666 0 0 0-2.133333-2.133334-2.133334-2.133333-4.266667-4.266667-10.666667-6.4-14.933333-6.4-14.933333-17.066667-27.733333-25.6-38.4-2.133333-2.133333-4.266667-4.266667-4.266666-6.4l-6.4-6.4-6.4-6.4-6.4-6.4c-2.133333-2.133333-6.4-4.266667-8.533334-6.4-2.133333-2.133333-4.266667-4.266667-6.4-4.266667-4.266667-2.133333-8.533333-6.4-12.8-8.533333-2.133333 0-2.133333-2.133333-4.266666-2.133333-6.4-4.266667-10.666667-6.4-17.066667-10.666667 0 0-2.133333 0-4.266667-2.133333-4.266667-2.133333-10.666667-4.266667-14.933333-6.4-2.133333 0-4.266667-2.133333-6.4-2.133334-4.266667-2.133333-8.533333-2.133333-12.8-4.266666-2.133333 0-4.266667-2.133333-6.4-2.133334-4.266667-2.133333-8.533333-2.133333-12.8-4.266666-2.133333 0-4.266667 0-6.4-2.133334-4.266667 0-10.666667-2.133333-14.933333-2.133333h-4.266667c-42.666667-102.4-142.933333-170.666667-256-170.666667C315.733333 192 192 315.733333 192 469.333333c0 10.666667 0 21.333333 2.133333 32C130.133333 526.933333 85.333333 588.8 85.333333 661.333333c0 93.866667 76.8 170.666667 170.666667 170.666667h448c130.133333 0 234.666667-104.533333 234.666667-234.666667 0-27.733333-4.266667-53.333333-12.8-76.8zM704 746.666667H256c-46.933333 0-85.333333-38.4-85.333333-85.333334 0-44.8 34.133333-81.066667 76.8-85.333333l51.2-4.266667-14.933334-49.066666c-4.266667-17.066667-6.4-36.266667-6.4-53.333334 0-106.666667 85.333333-192 192-192 68.266667 0 132.266667 38.4 166.4 96-44.8 14.933333-85.333333 40.533333-113.066666 76.8-23.466667 27.733333-2.133333 70.4 34.133333 70.4 12.8 0 23.466667-6.4 29.866667-14.933333 27.733333-34.133333 70.4-57.6 117.333333-57.6 6.4 0 12.8 0 17.066667 2.133333h4.266666c4.266667 0 8.533333 2.133333 12.8 2.133334 2.133333 0 4.266667 0 4.266667 2.133333 4.266667 2.133333 10.666667 2.133333 14.933333 4.266667h2.133334c6.4 2.133333 10.666667 4.266667 14.933333 8.533333 2.133333 0 2.133333 2.133333 4.266667 2.133333 4.266667 2.133333 8.533333 4.266667 10.666666 8.533334l2.133334 2.133333c8.533333 6.4 17.066667 14.933333 25.6 25.6 4.266667 4.266667 6.4 8.533333 10.666666 14.933333 14.933333 23.466667 21.333333 49.066667 21.333334 76.8 4.266667 83.2-61.866667 149.333333-145.066667 149.333334z"  /></svg>