<?xml version="1.0" standalone="no"?><!DOCTYPE svg PUBLIC "-//W3C//DTD SVG 1.1//EN" "http://www.w3.org/Graphics/SVG/1.1/DTD/svg11.dtd"><svg class="icon" width="32px" height="32.00px" viewBox="0 0 1024 1024" version="1.1" xmlns="http://www.w3.org/2000/svg"><path fill="#ffffff" d="M727.6 451.5H296.4c-17.8 0-32.2-14.4-32.2-32.2 0-17.8 14.4-32.2 32.2-32.2h431.2c17.8 0 32.2 14.4 32.2 32.2 0 17.8-14.4 32.2-32.2 32.2zM578.1 588.7H305.2c-17.8 0-32.2-14.4-32.2-32.2 0-17.8 14.4-32.2 32.2-32.2h272.9c17.8 0 32.2 14.4 32.2 32.2 0 17.8-14.4 32.2-32.2 32.2z"  /><path fill="#ffffff" d="M229.9 929.3c-7.7 0-15.2-2.6-21.3-7.8-17.8-15-15.4-32.1 3.6-105.2 4.3-16.4 8.6-32.5 12.1-45C108.5 700.2 40.1 589.9 40.1 472 40.1 264 251.8 94.7 512 94.7S983.9 264 983.9 472c0 208.1-211.7 377.3-471.9 377.3-25.4 0-50.7-1.6-75.2-4.8-38.1 7.2-127.9 50.4-177 74l-15.6 7.5c-4.6 2.2-9.5 3.3-14.3 3.3zM512 159.1c-224.7 0-407.5 140.4-407.5 312.9 0 101.3 64.6 196.9 172.9 255.6 13.3 7.2 19.8 22.7 15.6 37.2-7.2 25-14.8 52.8-20.8 76.4 65.7-31 124.7-56.5 159.9-61.1 2.9-0.4 5.8-0.4 8.7 0 23.1 3.2 47.1 4.8 71.2 4.8 224.7 0 407.5-140.4 407.5-312.9 0-172.5-182.8-312.9-407.5-312.9z"  /></svg>