<?xml version="1.0" standalone="no"?><!DOCTYPE svg PUBLIC "-//W3C//DTD SVG 1.1//EN" "http://www.w3.org/Graphics/SVG/1.1/DTD/svg11.dtd"><svg t="1730958705318" class="icon" viewBox="0 0 1024 1024" version="1.1" xmlns="http://www.w3.org/2000/svg" p-id="3213" xmlns:xlink="http://www.w3.org/1999/xlink" width="200" height="200"><path d="M583.6 759.85L762 938.22c7.66 7.66 15.1 15.42 23 22.76 32.55 30.63 80.09 33.5 119.13 14.89 39.67-18.93 60.09-66.05 53.82-108.17-3.72-25-16.7-45.31-34.25-62.86L731.13 612.33a25.81 25.81 0 0 0-36.06 0L583.6 723.8c-23.29 23.29 12.76 59.35 36.06 36.06l111.47-111.47h-36.06l178.37 178.36c7.66 7.66 15.42 15.1 22.76 23 26.17 27.76 8.51 73.6-24.89 84.77-40 13.51-69.67-28.82-94.24-53.39L619.66 723.69c-23.19-23.19-59.35 12.87-36.06 36.16z m-261.43-518.3l-22.66-68.92c-7-21.38-10.32-49-34.36-56.58l-143-45.1c-8.62-2.77-18.61 0.32-24.78 6.59l-48.66 48.61c-6.28 6.28-9.25 16.27-6.59 24.78L80 270.8c5.21 16.59 8.19 39.14 26.91 45.31l59 19.36 33.61 11.06 10.21 3.3c9.15 3-9-6.38-8-5.21l25.63 25.63L338.12 481l57.65 57.65a25.81 25.81 0 0 0 36.06 0l77.86-78a25.81 25.81 0 0 0 0-36.06L315.57 230.27C292.28 207 256.22 243 279.52 266.33l194.32 194.33V424.6l-77.86 78H432L276.5 347.1c-15.64-15.64-32.55-39.67-54.24-46.8l-102.11-33.5 17.76 17.87-46.55-147.25-6.59 24.78 48.71-48.61-24.78 6.59 147.2 46.49-17.76-17.87L273 255.16c10.24 31.06 59.48 17.77 49.17-13.61z" fill="#EB983F" p-id="3214"></path><path d="M636.47 743.15l77.86-78a25.81 25.81 0 0 0 0-36.06l-93-93.07a25.81 25.81 0 0 0-36.06 0l-78 78a25.81 25.81 0 0 0 0 36.06l93 93c23.29 23.29 59.35-12.76 36.06-36.06l-93-93v36.06l77.86-78H585.2l93 93V629l-77.9 78c-23.18 23.28 12.87 59.34 36.17 36.15z" fill="#EB983F" p-id="3215"></path><path d="M740.49 442.47c39.57 2.45 83.6-1 118.06-22.23 24-14.78 40.95-42.76 56.69-65.41 26.59-38.29 51.27-78.18 74.77-118.38a25.62 25.62 0 0 0-4-31L940 159.54a25.81 25.81 0 0 0-36.06 0l-105.7 105.73h36.06l-69.14-69.14v36.06l105.73-105.72a25.81 25.81 0 0 0 0-36.06L825 44.57a25.9 25.9 0 0 0-31-4c-46.69 27.34-93.17 55.95-136.78 87.86-29 21.27-50.84 41.91-61.9 77.33-11.59 37.44-11.27 80.73-3.3 118.81l6.59-24.78-353.34 353.49-140 140C49.56 849 73 938.12 143.58 966.73c44.35 18 87.43-4.25 118.38-35.1l397.16-397.27 99.34-99.45c23.29-23.29-12.76-59.35-36.06-36.06l-350.78 350.9-152 152c-10 10-20.63 16.49-34.78 19.46-36.69 7.66-66.16-31.06-59.14-64.67 4.47-21.17 25.74-37.44 40.42-52L576.69 394l49.56-49.56 8.4-8.3c10.42-10.42 6.81-22.76 4.79-35.42-2.34-14.36-1.81-29.57-1.06-44 1.28-24.57 6.38-51.27 25.31-68.39 17.55-16 38-29 57.75-42.23 32.23-21.49 65.2-41.8 98.6-61.37l-31-4 45.84 45.84V90.41L729.21 196.13a25.81 25.81 0 0 0 0 36.06l69.14 69.14a25.81 25.81 0 0 0 36.06 0L940.13 195.6h-36.06L950 241.55l-4-31c-21 35.74-42.86 70.94-65.84 105.3-13.08 19.46-26.27 39.57-42.76 56.37-22.12 22.66-68.07 20.74-96.9 19-32.88-1.83-32.66 49.23-0.01 51.25z" fill="#EB983F" p-id="3216"></path></svg>