<svg width="94" height="19" viewBox="0 0 94 19" fill="none" xmlns="http://www.w3.org/2000/svg">
<path d="M18.6328 0.726562H22.3008L17.4375 18H13.9922L11.9062 7.89844L11.2969 4.55859L10.6875 7.89844L8.60156 18H5.25L0.351562 0.726562H4.18359L6.46875 10.6172L6.96094 13.3711L7.46484 10.6758L9.41016 0.726562H13.2188L15.2695 10.6172L15.7969 13.3711L16.3242 10.7227L18.6328 0.726562ZM34.7344 14.25C34.6484 15.0078 34.2539 15.7773 33.5508 16.5586C32.457 17.8008 30.9258 18.4219 28.957 18.4219C27.332 18.4219 25.8984 17.8984 24.6562 16.8516C23.4141 15.8047 22.793 14.1016 22.793 11.7422C22.793 9.53125 23.3516 7.83594 24.4688 6.65625C25.5938 5.47656 27.0508 4.88672 28.8398 4.88672C29.9023 4.88672 30.8594 5.08594 31.7109 5.48438C32.5625 5.88281 33.2656 6.51172 33.8203 7.37109C34.3203 8.12891 34.6445 9.00781 34.793 10.0078C34.8789 10.5938 34.9141 11.4375 34.8984 12.5391H26.1562C26.2031 13.8203 26.6055 14.7188 27.3633 15.2344C27.8242 15.5547 28.3789 15.7148 29.0273 15.7148C29.7148 15.7148 30.2734 15.5195 30.7031 15.1289C30.9375 14.918 31.1445 14.625 31.3242 14.25H34.7344ZM31.4297 10.3359C31.375 9.45312 31.1055 8.78516 30.6211 8.33203C30.1445 7.87109 29.5508 7.64062 28.8398 7.64062C28.0664 7.64062 27.4648 7.88281 27.0352 8.36719C26.6133 8.85156 26.3477 9.50781 26.2383 10.3359H31.4297ZM37.6406 6.60938C38.5234 5.48438 40.0391 4.92188 42.1875 4.92188C43.5859 4.92188 44.8281 5.19922 45.9141 5.75391C47 6.30859 47.543 7.35547 47.543 8.89453V14.7539C47.543 15.1602 47.5508 15.6523 47.5664 16.2305C47.5898 16.668 47.6562 16.9648 47.7656 17.1211C47.875 17.2773 48.0391 17.4062 48.2578 17.5078V18H44.625C44.5234 17.7422 44.4531 17.5 44.4141 17.2734C44.375 17.0469 44.3438 16.7891 44.3203 16.5C43.8594 17 43.3281 17.4258 42.7266 17.7773C42.0078 18.1914 41.1953 18.3984 40.2891 18.3984C39.1328 18.3984 38.1758 18.0703 37.418 17.4141C36.668 16.75 36.293 15.8125 36.293 14.6016C36.293 13.0312 36.8984 11.8945 38.1094 11.1914C38.7734 10.8086 39.75 10.5352 41.0391 10.3711L42.1758 10.2305C42.793 10.1523 43.2344 10.0547 43.5 9.9375C43.9766 9.73438 44.2148 9.41797 44.2148 8.98828C44.2148 8.46484 44.0312 8.10547 43.6641 7.91016C43.3047 7.70703 42.7734 7.60547 42.0703 7.60547C41.2812 7.60547 40.7227 7.80078 40.3945 8.19141C40.1602 8.48047 40.0039 8.87109 39.9258 9.36328H36.7031C36.7734 8.24609 37.0859 7.32812 37.6406 6.60938ZM40.125 15.5859C40.4375 15.8438 40.8203 15.9727 41.2734 15.9727C41.9922 15.9727 42.6523 15.7617 43.2539 15.3398C43.8633 14.918 44.1797 14.1484 44.2031 13.0312V11.7891C43.9922 11.9219 43.7773 12.0312 43.5586 12.1172C43.3477 12.1953 43.0547 12.2695 42.6797 12.3398L41.9297 12.4805C41.2266 12.6055 40.7227 12.7578 40.418 12.9375C39.9023 13.2422 39.6445 13.7148 39.6445 14.3555C39.6445 14.9258 39.8047 15.3359 40.125 15.5859ZM56.3672 15.6211V18.1172L54.7852 18.1758C53.207 18.2305 52.1289 17.957 51.5508 17.3555C51.1758 16.9727 50.9883 16.3828 50.9883 15.5859V7.72266H49.207V5.34375H50.9883V1.78125H54.293V5.34375H56.3672V7.72266H54.293V14.4727C54.293 14.9961 54.3594 15.3242 54.4922 15.457C54.625 15.582 55.0312 15.6445 55.7109 15.6445C55.8125 15.6445 55.918 15.6445 56.0273 15.6445C56.1445 15.6367 56.2578 15.6289 56.3672 15.6211ZM70.0547 10.5V18H66.6445V10.2305C66.6445 9.54297 66.5273 8.98828 66.293 8.56641C65.9883 7.97266 65.4102 7.67578 64.5586 7.67578C63.6758 7.67578 63.0039 7.97266 62.543 8.56641C62.0898 9.15234 61.8633 9.99219 61.8633 11.0859V18H58.5352V0.785156H61.8633V6.89062C62.3477 6.14844 62.9062 5.63281 63.5391 5.34375C64.1797 5.04688 64.8516 4.89844 65.5547 4.89844C66.3438 4.89844 67.0586 5.03516 67.6992 5.30859C68.3477 5.58203 68.8789 6 69.293 6.5625C69.6445 7.03906 69.8594 7.53125 69.9375 8.03906C70.0156 8.53906 70.0547 9.35938 70.0547 10.5ZM84.1172 14.25C84.0312 15.0078 83.6367 15.7773 82.9336 16.5586C81.8398 17.8008 80.3086 18.4219 78.3398 18.4219C76.7148 18.4219 75.2812 17.8984 74.0391 16.8516C72.7969 15.8047 72.1758 14.1016 72.1758 11.7422C72.1758 9.53125 72.7344 7.83594 73.8516 6.65625C74.9766 5.47656 76.4336 4.88672 78.2227 4.88672C79.2852 4.88672 80.2422 5.08594 81.0938 5.48438C81.9453 5.88281 82.6484 6.51172 83.2031 7.37109C83.7031 8.12891 84.0273 9.00781 84.1758 10.0078C84.2617 10.5938 84.2969 11.4375 84.2812 12.5391H75.5391C75.5859 13.8203 75.9883 14.7188 76.7461 15.2344C77.207 15.5547 77.7617 15.7148 78.4102 15.7148C79.0977 15.7148 79.6562 15.5195 80.0859 15.1289C80.3203 14.918 80.5273 14.625 80.707 14.25H84.1172ZM80.8125 10.3359C80.7578 9.45312 80.4883 8.78516 80.0039 8.33203C79.5273 7.87109 78.9336 7.64062 78.2227 7.64062C77.4492 7.64062 76.8477 7.88281 76.418 8.36719C75.9961 8.85156 75.7305 9.50781 75.6211 10.3359H80.8125ZM92.9648 8.30859C91.6211 8.30859 90.7188 8.74609 90.2578 9.62109C90 10.1133 89.8711 10.8711 89.8711 11.8945V18H86.5078V5.22656H89.6953V7.45312C90.2109 6.60156 90.6602 6.01953 91.043 5.70703C91.668 5.18359 92.4805 4.92188 93.4805 4.92188C93.543 4.92188 93.5938 4.92578 93.6328 4.93359C93.6797 4.93359 93.7773 4.9375 93.9258 4.94531V8.36719C93.7148 8.34375 93.5273 8.32812 93.3633 8.32031C93.1992 8.3125 93.0664 8.30859 92.9648 8.30859Z" fill="white"/>
</svg>
