<svg t="1732604163989" class="icon" viewBox="0 0 1024 1024" version="1.1" xmlns="http://www.w3.org/2000/svg" p-id="6463"
	width="200" height="200">
	<path d="M0 512a512 512 0 1 0 1024 0 512 512 0 1 0-1024 0Z" fill="#F2ECFF" p-id="6464"></path>
	<path d="M238.933333 665.6a273.066667 153.6 0 1 0 546.133334 0 273.066667 153.6 0 1 0-546.133334 0Z" fill="#DBBBFF"
		p-id="6465"></path>
	<path d="M341.333333 375.466667a170.666667 170.666667 0 1 0 341.333334 0 170.666667 170.666667 0 1 0-341.333334 0Z"
		fill="#BC86F9" p-id="6466"></path>
	<path
		d="M460.8 409.6c-9.4208 0-17.3056 7.645867-14.984533 16.7936a68.266667 68.266667 0 0 0 132.369066 0c2.321067-9.147733-5.563733-16.7936-14.984533-16.7936h-102.4z"
		fill="#FFFFFF" p-id="6467"></path>
</svg>